<svg xmlns="http://www.w3.org/2000/svg" viewBox="0 0 780 500" role="img" aria-label="Visa">
  <rect width="780" height="500" rx="60" ry="60" fill="#1A1F71"/>
  <path fill="#FFFFFF" d="M293 341.4h-52.3l32.7-201.8h52.3z"/>
  <path fill="#FFFFFF" d="M480.7 145c-10.4-4-26.7-8.4-46.9-8.4-51.6 0-88 27.6-88.3 67.1-.3 29.2 26.1 45.5 46 55.2 20.4 9.9 27.3 16.2 27.2 25-.1 13.5-16.2 19.6-31.2 19.6-20.9 0-32-3-49.2-10.6l-6.7-3.2-7.3 45c12.2 5.6 34.7 10.4 58 10.6 55 0 90.7-27.2 91.1-69.4.2-23.1-13.8-40.7-44-55.2-18.3-9.4-29.5-15.7-29.4-25.3.1-8.5 9.6-17.6 30.3-17.6 17.3-.3 29.9 3.7 39.6 7.9l4.8 2.4z"/>
  <path fill="#FFFFFF" d="M580.5 269.4c4.3-11.6 20.9-56.3 20.9-56.3-.3.5 4.3-11.7 6.9-19.3l3.5 17.4s10 47.9 12.1 58.2h-43.4zm64.3-129.8h-40.4c-12.5 0-21.9 3.6-27.4 16.7l-77.7 185.1h55l11-30h67.2c1.5 7 6.2 30 6.2 30h48.5z"/>
  <path fill="#FFFFFF" d="M198.9 139.6l-51.2 137.4-5.5-27.9c-9.5-32.2-39.2-67.1-72.4-84.5l46.9 176.7h55.4l82.4-201.7z"/>
  <path fill="#F7B600" d="M100.4 139.6H15.9L15 143.6c65.7 16.8 109.2 57.2 127.1 105.7L124 156.3c-3-11.9-11.7-16.4-22.6-16.7z"/>
</svg>
